<?xml version="1.0" encoding="UTF-8" standalone="no"?>
<svg
   xmlns:dc="http://purl.org/dc/elements/1.1/"
   xmlns:cc="http://creativecommons.org/ns#"
   xmlns:rdf="http://www.w3.org/1999/02/22-rdf-syntax-ns#"
   xmlns:svg="http://www.w3.org/2000/svg"
   xmlns="http://www.w3.org/2000/svg"
   xmlns:sodipodi="http://sodipodi.sourceforge.net/DTD/sodipodi-0.dtd"
   xmlns:inkscape="http://www.inkscape.org/namespaces/inkscape"
   width="100pt"
   height="80pt"
   viewBox="0 0 100 80"
   version="1.1"
   id="svg3506"
   inkscape:version="0.91 r"
   sodipodi:docname="artecores.svg">
  <metadata
     id="metadata3636">
    <rdf:RDF>
      <cc:Work
         rdf:about="">
        <dc:format>image/svg+xml</dc:format>
        <dc:type
           rdf:resource="http://purl.org/dc/dcmitype/StillImage" />
      </cc:Work>
    </rdf:RDF>
  </metadata>
  <defs
     id="defs3634" />
  <sodipodi:namedview
     pagecolor="#ffffff"
     bordercolor="#666666"
     borderopacity="1"
     objecttolerance="10"
     gridtolerance="10"
     guidetolerance="10"
     inkscape:pageopacity="0"
     inkscape:pageshadow="2"
     inkscape:window-width="1366"
     inkscape:window-height="716"
     id="namedview3632"
     showgrid="false"
     inkscape:zoom="5.35"
     inkscape:cx="88.062693"
     inkscape:cy="50"
     inkscape:window-x="0"
     inkscape:window-y="0"
     inkscape:window-maximized="1"
     inkscape:current-layer="svg3506" />
  <path
     d="m 33.081688,17.83057 c 2.695427,0.101715 6.340187,-0.974761 7.382758,2.46657 0.796761,-0.796761 1.17819,-2.381808 2.500475,-2.424189 2.983617,-0.330571 5.992663,0 8.976281,0.296667 6.331711,-0.703524 12.722755,-0.24581 19.079895,-0.372952 1.161237,0.127142 3.500665,-0.296667 3.339618,1.559618 -0.03391,3.500665 -1.82238,6.721615 -1.754571,10.256185 3.907522,-1.008666 8.187996,-0.949333 11.815804,0.983238 3.64476,1.949522 5.848568,6.340187 4.899235,10.417232 0.550952,3.53457 1.237523,7.71333 -1.313809,10.671518 -3.144665,4.026189 -8.849138,4.856855 -13.604278,3.966856 -4.466951,-1.059524 -9.052568,0.144095 -13.587327,-0.186477 -7.348854,0.211905 -14.75704,-0.805237 -22.04656,0.389905 -2.551332,0.144095 -4.839903,-1.17819 -7.06914,-2.229237 -7.128472,4.729712 -18.927323,2.313999 -21.427798,-6.535139 -0.5085709,-4.093998 -1.067999,-8.82371 1.500285,-12.400661 3.068379,-4.712759 9.340757,-6.679234 14.672278,-5.365425 1.135809,-4.365236 4.331331,-7.730282 6.636854,-11.493709 z"
     id="path3514"
     inkscape:connector-curvature="0"
     style="fill:#7e7e7e" />
  <path
     d="m 33.302069,18.54257 c 1.830856,-0.04238 3.661712,-0.05933 5.492568,-0.05933 0.534,1.585046 1.042571,3.170093 1.551142,4.75514 0.686571,-1.559618 1.330761,-3.144665 2.00038,-4.704283 4.483903,-0.449238 8.942376,0.695047 13.417803,0 6.026568,-0.144095 12.070089,-0.118667 18.105134,0.03391 -0.322095,3.763426 -1.822381,7.314948 -2.008857,11.103803 l -0.559428,0 c -3.339618,-0.05933 -6.670759,0.01695 -10.010376,0.08476 l -0.220381,-0.856095 c 0.101714,-2.051237 0.432286,-4.085521 0.576381,-6.136758 -1.53419,2.051237 -2.305523,4.509331 -2.932761,6.958948 -1.898665,0.02543 -3.797331,0.02543 -5.695997,0.01695 0.372953,-2.169904 0.796762,-4.322855 1.220571,-6.484283 -0.483142,0.322095 -1.440951,0.966286 -1.924094,1.288381 0.01695,1.729142 0.04238,3.458284 0.05086,5.195902 -5.806187,-0.500095 -11.663232,0.711999 -17.40161,-0.567905 -1.229047,-0.296666 -2.313999,0.618762 -3.432855,0.906952 4.212664,0.745905 8.501614,1.042571 12.773612,0.788286 5.212855,-0.339048 10.442661,0.01695 15.655516,-0.254286 0.398381,0.04238 1.186666,0.135619 1.585047,0.178 2.424189,0.347523 4.856854,0.601809 7.306472,0.525523 -0.847619,1.093428 -1.703713,2.17838 -2.542856,3.288761 -3.009046,0.05086 -6.026568,0.144095 -9.018662,0.449237 3.059903,0.805238 6.35714,1.407047 9.476376,0.644191 1.457904,-1.432476 2.542856,-3.35657 4.46695,-4.238093 2.534381,-1.415524 5.551903,-1.059524 8.340568,-1.025619 4.399141,0.04238 8.942377,3.839712 8.518567,8.493138 -0.406857,3.415903 1.788476,6.950473 0.02543,10.222281 -1.305333,3.449808 -5.017902,5.034854 -8.433805,5.517997 -2.898856,0.720476 -5.755331,-0.406857 -8.518568,-1.135809 -4.475426,1.152761 -9.145805,0.449238 -13.714469,0.64419 -4.433046,-0.194952 -8.967805,0.474667 -13.324565,-0.559428 -4.11095,1.491809 -8.560948,1.059523 -12.281993,-1.220571 -2.941237,1.076476 -5.865521,2.71238 -9.103424,2.500475 -3.017526,-0.356003 -6.145239,-1.237526 -8.366,-3.432858 -5.670568,-5.407807 -4.5771399,-16.367516 2.64457,-19.927514 5.907902,-2.602189 14.29085,-1.440951 17.342277,4.907712 3.195522,-1.144285 6.535139,-0.703524 9.798471,-0.144095 -2.458094,-2.475047 -6.102854,-1.551142 -9.22209,-1.517238 -1.246,-1.500284 -2.542856,-2.949712 -3.882094,-4.365235 -1.457904,-0.398381 -2.881903,-0.89 -4.280474,-1.457904 1.949523,-3.610856 4.390665,-6.916568 6.526664,-10.417233 z"
     id="path3516"
     inkscape:connector-curvature="0"
     style="fill:#ffffff" />
  <path
     d="m 34.700639,20.271712 c 0.652667,0 1.949523,-0.0085 2.602189,-0.01695 0.754381,2.746284 1.53419,5.492568 2.06819,8.298186 -1.220571,-0.415333 -2.271618,-1.084952 -3.161618,-2.008856 -2.390284,-0.110191 -4.500854,1.042571 -6.670758,1.856284 1.568094,-2.805617 3.373522,-5.458663 5.161997,-8.128662 z"
     id="path3518"
     inkscape:connector-curvature="0"
     style="fill:#ed1f24" />
  <path
     d="m 41.56635,28.519041 c 0.576381,-2.771713 1.127333,-5.594283 2.280094,-8.204948 2.407237,-0.02543 5.221331,-0.517047 7.28952,1.034095 0.974761,1.407046 -0.584857,2.347903 -1.339237,3.356569 0.152571,1.144285 0.296666,2.28857 0.423809,3.432856 -0.64419,-0.0085 -1.915618,-0.03391 -2.551332,-0.05086 0.07629,-0.695047 0.237333,-2.085141 0.322095,-2.780189 -1.076476,-0.161047 -2.161427,-0.313618 -3.246379,-0.46619 -0.601809,1.635904 -0.974762,3.636284 -3.17857,3.678665 z"
     id="path3520"
     inkscape:connector-curvature="0"
     style="fill:#ed1f24" />
  <path
     d="m 53.356725,21.339711 c 2.593713,-2.195332 6.475806,-0.695047 9.569614,-0.856094 -1.161238,0.720475 -2.424189,1.161237 -3.788855,1.305332 -1.110381,2.381809 -0.593333,6.585997 -4.093998,6.653806 0.491619,-2.297046 1.093428,-4.568664 1.695237,-6.831806 -0.839142,-0.06781 -2.53438,-0.203428 -3.381998,-0.271238 z"
     id="path3522"
     inkscape:connector-curvature="0"
     style="fill:#ee272e" />
  <path
     d="m 62.72291,28.129136 c 0.703524,-2.636093 1.432476,-5.263711 2.17838,-7.891329 2.517428,0.0085 5.043331,-0.02543 7.543807,0.254286 -1.466381,1.508761 -3.619333,0.957809 -5.475617,1.084952 -0.279714,0.601809 -0.542476,1.203618 -0.813714,1.813903 1.449428,0.02543 2.907332,0.05086 4.365236,0.06781 l -0.135619,1.279904 c -1.440952,-0.0085 -2.881904,-0.01695 -4.322855,-0.03391 -0.271238,0.695047 -0.550952,1.390095 -0.82219,2.085142 1.856284,0.02543 3.712569,0.06781 5.560378,0.211905 -2.17838,2.034284 -5.416283,0.796761 -8.077806,1.127332 z"
     id="path3524"
     inkscape:connector-curvature="0"
     style="fill:#ee252d" />
  <path
     d="m 45.287396,21.492283 c 1.39857,0.271238 3.534569,-0.601809 4.136379,1.169713 -0.822191,1.508762 -2.907332,0.983238 -4.288951,1.491809 0.04238,-0.889999 0.101715,-1.779999 0.152572,-2.661522 z"
     id="path3526"
     inkscape:connector-curvature="0"
     style="fill:#ffffff" />
  <path
     d="m 33.403783,25.29809 c 0.796761,-1.262951 1.610475,-2.517427 2.441141,-3.763426 0.237334,1.279904 0.474667,2.559808 0.712,3.848188 -0.788285,-0.02543 -2.364856,-0.06781 -3.153141,-0.08476 z"
     id="path3528"
     inkscape:connector-curvature="0"
     style="fill:#ffffff" />
  <path
     d="m 52.314154,24.54371 c 0.483143,-0.322095 1.440952,-0.966286 1.924094,-1.288381 -0.423809,2.161428 -0.847618,4.314379 -1.220571,6.484283 1.898666,0.0085 3.797332,0.0085 5.695997,-0.01695 0.627238,-2.449617 1.398571,-4.907711 2.932761,-6.958948 -0.144095,2.051237 -0.474667,4.085521 -0.576381,6.136758 l 0.220381,0.856095 0.254286,1.034095 c -0.398381,-0.04238 -1.186666,-0.135619 -1.585047,-0.178 -5.212855,0.271238 -10.442661,-0.08476 -15.655516,0.254286 -4.271998,0.254285 -8.560948,-0.04238 -12.773612,-0.788286 1.118856,-0.28819 2.203808,-1.203618 3.432855,-0.906952 5.738378,1.279904 11.595423,0.06781 17.40161,0.567905 -0.0085,-1.737618 -0.0339,-3.46676 -0.05086,-5.195902 z"
     id="path3530"
     inkscape:connector-curvature="0"
     style="fill:#b3b3b3" />
  <path
     d="m 61.290435,29.756564 c 3.339617,-0.06781 6.670758,-0.144095 10.010376,-0.08476 -0.796762,0.567905 -1.576571,1.17819 -2.449618,1.64438 -2.449618,0.07629 -4.882283,-0.178 -7.306472,-0.525523 l -0.254286,-1.034095 z"
     id="path3532"
     inkscape:connector-curvature="0"
     style="fill:#cccccd" />
  <path
     d="m 48.118442,33.791229 c 0.779809,-1.576571 2.297046,-2.720856 4.136379,-2.297047 1.17819,-0.39838 2.28857,0.873047 1.195142,1.720666 -0.534,1.415523 -1.669809,0.178 -2.508951,0.0085 l 2.102094,-1.169713 c -0.796762,0.06781 -2.398761,0.211904 -3.203998,0.279714 0.381428,0.847618 0.805237,1.678285 1.237523,2.508951 1.17819,0.254285 2.35638,0.517047 3.526093,0.805237 -0.0339,-0.533999 -0.09324,-1.593523 -0.118666,-2.119046 0.483142,-0.04238 1.46638,-0.118667 1.949522,-0.161048 -0.381428,0.915428 -0.796761,1.82238 -1.152761,2.754761 1.144285,0.356 2.297047,0.728952 3.432855,1.118856 -2.627617,-0.06781 -5.272187,-0.423809 -7.882853,0.05933 -1.873237,0.339047 -4.212664,-0.05086 -4.75514,-2.195332 0.508571,-0.330572 1.53419,-0.983238 2.042761,-1.313809 z"
     id="path3534"
     inkscape:connector-curvature="0"
     style="fill:#ed1f24" />
  <path
     d="m 15.620744,36.893513 c 2.491999,-3.636284 7.730282,-4.161808 11.561518,-2.602189 l -0.127143,0.0085 c -2.508951,0.0085 -5.102664,-0.152571 -7.526853,0.584857 -1.974951,0.711999 -3.144665,2.593713 -4.204188,4.280474 -0.05086,0.415333 -0.152572,1.254475 -0.203429,1.669808 -0.06781,1.246 -0.101714,2.483523 -0.08476,3.729522 0.01695,0.347524 0.05086,1.042571 0.06781,1.390095 L 14.2137,45.05608 c 0.06781,-2.746284 -0.491618,-5.865521 1.407047,-8.162567 z"
     id="path3536"
     inkscape:connector-curvature="0"
     style="fill:#944f42" />
  <path
     d="m 70.01243,36.393418 c 2.941238,-3.271808 7.798093,-3.585427 11.747995,-2.263142 2.161428,0.847619 3.110761,3.042951 3.593903,5.136569 -1.305332,0.01695 -2.610665,0.02543 -3.915998,0.02543 -0.491619,0.415334 -0.983237,0.830667 -1.46638,1.246 2.390285,-0.449238 4.00076,1.339237 5.568854,2.729332 -0.118666,2.271618 0.339048,5.085711 -1.830856,6.585996 -3.305712,2.288571 -8.009996,2.432666 -11.485233,0.432286 -1.93257,-1.068 -2.542856,-3.28876 -3.195522,-5.229807 2.237713,-0.11019 4.483903,-0.152571 6.71314,0.161048 l -1.313809,0.237333 c -1.508761,0.144095 -3.017523,0.237333 -4.53476,0.347523 0.169524,0.254286 0.500095,0.779809 0.669619,1.042571 2.381809,5.306093 10.866471,5.407807 13.900946,0.669619 l 0.08476,-0.991714 c 0.06781,-0.991714 0.144095,-1.974951 0.211904,-2.958189 -1.559618,-0.940856 -3.136189,-1.856285 -4.865331,-2.441141 -1.839332,-0.64419 -3.678664,-1.296857 -5.560378,-1.805428 0.525524,-0.508571 1.576571,-1.525713 2.102095,-2.034285 2.831046,0.474667 5.594282,1.390095 8.493138,1.491809 -1.347714,-1.593523 -2.542856,-3.610855 -4.670379,-4.246569 -3.882093,-1.610475 -8.806758,0.398381 -10.137519,4.475426 0.423809,0.940857 0.873047,1.873237 1.347713,2.788665 2.398762,1.500285 5.170475,2.263142 7.950664,2.636094 0.534,0.830666 1.067999,1.661333 1.601999,2.500475 -2.068189,0.24581 -4.161807,0.161048 -6.229997,-0.0085 0.07629,-0.381428 0.211905,-1.144285 0.288191,-1.525714 1.381618,1.203619 3.161617,1.271428 4.899235,1.127333 -2.542856,-2.347903 -6.552092,-1.729142 -9.052567,-4.127902 -1.576571,-1.585047 -0.949333,-4.009236 -0.915429,-6.00114 z"
     id="path3538"
     inkscape:connector-curvature="0"
     style="fill:#866e5e" />
  <path
     d="m 19.528266,34.884657 c 2.424189,-0.737428 5.017902,-0.576381 7.526853,-0.584857 l 0.720476,0.339047 c 1.254476,1.686761 2.542856,3.331141 3.737998,5.060283 -2.873427,0.228857 -5.416283,-1.017142 -8.001519,-2.025808 -1.279904,0.194952 -2.500475,0.652666 -3.746475,0.983238 -1.46638,0.245809 -2.958189,0.372952 -4.441521,0.508571 1.059523,-1.686761 2.229237,-3.568475 4.204188,-4.280474 z"
     id="path3540"
     inkscape:connector-curvature="0"
     style="fill:#ed1f24" />
  <path
     d="m 27.775595,34.638847 c 2.966665,0.339048 3.602379,3.64476 4.441522,5.950283 -1.983428,0.04238 -3.966855,0.03391 -5.958759,0.02543 -0.813714,-0.915428 -1.449428,-2.127522 -2.678475,-2.551332 -0.796761,0.262762 -1.585047,0.559429 -2.35638,0.89 -0.372952,0.93238 -0.745904,1.847809 -1.127332,2.771713 -0.08476,-0.762857 -0.24581,-2.297047 -0.330572,-3.068379 1.246,-0.330572 2.466571,-0.788286 3.746475,-0.983238 2.585236,1.008666 5.128092,2.254665 8.001519,2.025808 -1.195142,-1.729142 -2.483522,-3.373522 -3.737998,-5.060283 z"
     id="path3542"
     inkscape:connector-curvature="0"
     style="fill:#8b4d45" />
  <path
     d="m 48.194728,35.528847 c 0.228857,-1.635904 3.407426,-0.46619 3.009046,0.906952 -0.932381,0.686571 -2.593713,0.169523 -3.009046,-0.906952 z"
     id="path3544"
     inkscape:connector-curvature="0"
     style="fill:#ffffff" />
  <path
     d="m 70.122621,39.004083 c 1.330761,-4.077045 6.255426,-6.085901 10.137519,-4.475426 2.127523,0.635714 3.322665,2.653046 4.670379,4.246569 -2.898856,-0.101714 -5.662092,-1.017142 -8.493138,-1.491809 -0.525524,0.508572 -1.576571,1.525714 -2.102095,2.034285 -1.39857,-0.135619 -2.814094,-0.211905 -4.212665,-0.313619 z"
     id="path3546"
     inkscape:connector-curvature="0"
     style="fill:#ed1f24" />
  <path
     d="m 76.386523,38.241226 c 1.00019,-0.457714 1.949523,-0.330571 2.839523,0.381429 -0.05933,0.305142 -0.169524,0.915428 -0.220381,1.220571 -0.940857,0.11019 -3.009046,-0.322096 -2.619142,-1.602 z"
     id="path3548"
     inkscape:connector-curvature="0"
     style="fill:#f7f7f7" />
  <path
     d="m 15.324078,39.165131 c 1.483332,-0.135619 2.975141,-0.262762 4.441521,-0.508571 0.08476,0.771332 0.24581,2.305522 0.330572,3.068379 l -0.64419,-0.101714 c -1.440952,-0.24581 -2.89038,-0.525524 -4.331332,-0.788286 0.05086,-0.415333 0.152572,-1.254475 0.203429,-1.669808 z"
     id="path3550"
     inkscape:connector-curvature="0"
     style="fill:#eb6021" />
  <path
     d="m 34.929496,40.021225 c 3.661713,-2.57676 8.976281,-0.796761 10.578281,3.339618 l -0.474667,-0.03391 c -1.457904,-1.042571 -2.898856,-2.119046 -4.382188,-3.127713 -1.008666,-0.957809 -2.602189,-0.889999 -3.64476,-0.0339 -1.669809,0.839142 -3.314189,1.941046 -3.500665,3.983807 -0.08476,0.669619 -0.245809,2.008856 -0.330571,2.678475 l -0.652667,-0.703524 c 0.24581,-2.178379 0.144096,-4.907711 2.407237,-6.102854 z"
     id="path3552"
     inkscape:connector-curvature="0"
     style="fill:#89703c" />
  <path
     d="m 46.440157,39.004083 c 3.297236,0.101714 6.865711,-0.389904 9.900185,1.169714 1.89019,1.652856 0.796762,4.492378 0.186476,6.509711 l -0.669618,0.01695 c -0.211905,-0.322095 -0.635714,-0.974761 -0.847619,-1.296856 0.24581,-0.313619 0.720476,-0.940857 0.966285,-1.254476 0.135619,-0.491619 0.398381,-1.491809 0.534,-1.983427 -0.796761,-1.144286 -2.085142,-1.678285 -3.398951,-2.00038 -1.805427,-0.661143 -3.839712,-0.813714 -5.636663,-0.04238 l -0.02543,0.356 c -0.02543,0.508571 -0.08476,1.517237 -0.118666,2.025808 0,0.330571 -0.01695,1.008666 -0.02543,1.347714 -0.01695,0.75438 -0.05086,2.254665 -0.06781,3.000569 L 46.626633,45.496842 C 46.151967,43.386271 46.49949,41.165511 46.440157,39.004083 Z"
     id="path3554"
     inkscape:connector-curvature="0"
     style="fill:#807655" />
  <path
     d="m 58.417008,39.733035 c 0.178,-0.169524 0.525523,-0.517047 0.703523,-0.686571 3.170094,-0.178 6.560568,-0.652666 9.578091,0.576381 -3.17857,0.211904 -6.365616,0.144095 -9.552662,0.101714 l 0,0.686571 c 0.0085,0.457714 0.0085,1.390095 0.01695,1.847809 0,0.627237 0.01695,1.864761 0.02543,2.483522 0,0.491619 0.0085,1.483333 0.01695,1.974951 -0.0085,1.084952 -0.03391,2.161428 -0.09324,3.237904 l -0.542476,0.788285 -0.296666,0.432285 c 0.11019,-3.814283 -0.161048,-7.637043 0.144095,-11.442851 z"
     id="path3556"
     inkscape:connector-curvature="0"
     style="fill:#848484" />
  <path
     d="m 70.122621,39.004083 c 1.398571,0.101714 2.814095,0.178 4.212665,0.313619 1.881714,0.508571 3.721046,1.161238 5.560378,1.805428 -2.82257,-0.04238 -5.628187,0.271238 -8.42533,0.669618 C 70.995668,40.87732 70.54643,39.94494 70.122621,39.004083 Z"
     id="path3558"
     inkscape:connector-curvature="0"
     style="fill:#f47221" />
  <path
     d="m 37.006162,40.165321 c 1.042571,-0.856095 2.636094,-0.923905 3.64476,0.0339 -1.220571,0.678095 -2.432665,0.669619 -3.64476,-0.0339 z"
     id="path3560"
     inkscape:connector-curvature="0"
     style="fill:#f47221" />
  <path
     d="m 47.474252,40.12294 c 1.796951,-0.771333 3.831236,-0.618762 5.636663,0.04238 -1.813903,0.593333 -3.822759,1.195142 -5.662092,0.313619 l 0.02543,-0.356 z"
     id="path3562"
     inkscape:connector-curvature="0"
     style="fill:#f27121" />
  <path
     d="m 59.14596,39.724559 c 3.187046,0.04238 6.374092,0.11019 9.552662,-0.101714 -0.04238,0.906952 -0.07629,1.805427 -0.110191,2.712379 L 67.935765,41.928367 C 65.486147,39.792368 62.121101,40.436559 59.14596,40.41113 l 0,-0.686571 z"
     id="path3564"
     inkscape:connector-curvature="0"
     style="fill:#d86e2a" />
  <path
     d="m 15.120649,40.834939 c 1.440952,0.262762 2.89038,0.542476 4.331332,0.788286 -0.03391,0.381428 -0.118667,1.135809 -0.152572,1.517237 -1.423999,0.483143 -2.839522,0.957809 -4.263522,1.423999 -0.01695,-1.245999 0.01695,-2.483522 0.08476,-3.729522 z"
     id="path3566"
     inkscape:connector-curvature="0"
     style="fill:#feea19" />
  <path
     d="m 33.505497,44.149128 c 0.186476,-2.042761 1.830856,-3.144665 3.500665,-3.983807 1.212095,0.703523 2.424189,0.711999 3.64476,0.0339 1.483332,1.008667 2.924284,2.085142 4.382188,3.127713 -1.279904,0.262762 -2.568284,0.550952 -3.839712,0.847619 -0.440762,-0.813714 -0.915428,-1.610476 -1.407047,-2.398761 -0.864571,-1.00019 -1.398571,-0.864571 -1.610475,0.398381 -0.618762,0.593333 -1.203619,1.203618 -1.771523,1.847808 -0.728952,0.02543 -2.17838,0.09324 -2.898856,0.127143 z"
     id="path3568"
     inkscape:connector-curvature="0"
     style="fill:#f3c518" />
  <path
     d="m 47.448823,40.47894 c 1.839333,0.881523 3.848189,0.279714 5.662092,-0.313619 1.313809,0.322095 2.60219,0.856094 3.398951,2.00038 -0.559428,0.05933 -1.669809,0.177999 -2.229237,0.237333 -1.551142,-0.610286 -3.203998,-0.254286 -4.805997,-0.169524 -0.534,0.06781 -1.602,0.203428 -2.144475,0.271238 0.0339,-0.508571 0.09324,-1.517237 0.118666,-2.025808 z"
     id="path3570"
     inkscape:connector-curvature="0"
     style="fill:#fbaa18" />
  <path
     d="m 59.14596,40.41113 c 2.975141,0.02543 6.340187,-0.618762 8.789805,1.517237 -2.135999,0.01695 -4.263522,0.152572 -6.399521,0.271238 -0.788285,0.02543 -1.585046,0.04238 -2.373332,0.05933 -0.0085,-0.457714 -0.0085,-1.390095 -0.01695,-1.847809 z"
     id="path3572"
     inkscape:connector-curvature="0"
     style="fill:#f9a619" />
  <path
     d="m 19.451981,41.623225 0.64419,0.101714 c -0.03391,0.322095 -0.110191,0.974761 -0.144095,1.296856 l -0.652667,0.118667 c 0.0339,-0.381428 0.118667,-1.135809 0.152572,-1.517237 z"
     id="path3574"
     inkscape:connector-curvature="0"
     style="fill:#7e6c0a" />
  <path
     d="m 38.175876,42.174177 c 0.211904,-1.262952 0.745904,-1.398571 1.610475,-0.398381 -0.406857,0.101714 -1.212095,0.296666 -1.610475,0.398381 z"
     id="path3576"
     inkscape:connector-curvature="0"
     style="fill:#7f5c0a" />
  <path
     d="m 49.474632,42.23351 c 1.601999,-0.08476 3.254855,-0.440762 4.805997,0.169524 0.06781,0.46619 0.211905,1.39857 0.279714,1.864761 -1.678285,0.152571 -3.373522,0.186476 -5.04333,-0.118667 -0.0085,-0.474666 -0.03391,-1.432475 -0.04238,-1.915618 z"
     id="path3578"
     inkscape:connector-curvature="0"
     style="fill:#968623" />
  <path
     d="m 61.536244,42.199605 c 2.135999,-0.118666 4.263522,-0.254285 6.399521,-0.271238 l 0.652666,0.406857 c -1.847808,0.186476 -3.712569,0.203429 -5.568854,0.313619 1.415523,0.254286 2.847998,0.423809 4.238093,0.754381 0.245809,1.025618 0.449238,2.068189 0.610285,3.11076 -1.881713,0.04238 -3.771902,0.07629 -5.64514,0.279714 1.983428,0.847619 4.153332,0.754381 6.255426,0.813714 0,1.059523 0.0085,2.119047 0.01695,3.17857 -3.305712,0.0085 -6.619901,0.04238 -9.925614,-0.04238 l 0.542476,-0.788285 c 2.864951,-0.101715 5.738378,-0.01695 8.611805,0.01695 -0.0339,-0.432286 -0.08476,-1.296857 -0.118666,-1.729142 -1.678285,0 -3.35657,0 -5.034855,0 -0.296666,-0.474666 -0.881523,-1.440952 -1.169714,-1.915618 1.788476,-0.322095 3.585427,-0.601809 5.390855,-0.873047 l -0.0085,-0.508571 -0.0085,-0.550953 c -1.907141,-0.330571 -4.051617,-0.389904 -5.238283,-2.195332 z"
     id="path3580"
     inkscape:connector-curvature="0"
     style="fill:#627561" />
  <path
     d="m 71.470334,41.792748 c 2.797143,-0.39838 5.60276,-0.711999 8.42533,-0.669618 1.729142,0.584856 3.305713,1.500285 4.865331,2.441141 -1.779999,0.313619 -3.551522,0.635714 -5.339997,0.864571 -2.780189,-0.372952 -5.551902,-1.135809 -7.950664,-2.636094 z"
     id="path3582"
     inkscape:connector-curvature="0"
     style="fill:#f9ea19" />
  <path
     d="m 36.404353,44.021985 c 0.567904,-0.64419 1.152761,-1.254475 1.771523,-1.847808 -0.923905,1.517237 -1.288381,3.297236 -0.915429,5.04333 1.135809,0.203429 2.288571,0.364476 3.441332,0.466191 -0.220381,-1.983428 -0.491619,-3.958379 -0.915428,-5.907902 0.491619,0.788285 0.966285,1.585047 1.407047,2.398761 0.237333,0.669618 0.711999,2.017332 0.949333,2.686951 -1.076476,0.627237 -2.119047,1.381618 -3.331141,1.763046 -1.152762,-0.46619 -2.186856,-1.161237 -3.254856,-1.796951 0.211905,-0.703524 0.635714,-2.102094 0.847619,-2.805618 z"
     id="path3584"
     inkscape:connector-curvature="0"
     style="fill:#688070" />
  <path
     d="m 38.175876,42.174177 c 0.39838,-0.101715 1.203618,-0.296667 1.610475,-0.398381 0.423809,1.949523 0.695047,3.924474 0.915428,5.907902 -1.152761,-0.101715 -2.305523,-0.262762 -3.441332,-0.466191 -0.372952,-1.746094 -0.0085,-3.526093 0.915429,-5.04333 z"
     id="path3586"
     inkscape:connector-curvature="0"
     style="fill:#ffffff" />
  <path
     d="m 47.330157,42.504748 c 0.542475,-0.06781 1.610475,-0.203428 2.144475,-0.271238 0.0085,0.483143 0.0339,1.440952 0.04238,1.915618 -0.550953,-0.06781 -1.661333,-0.220381 -2.212285,-0.296666 0.0085,-0.339048 0.02543,-1.017143 0.02543,-1.347714 z"
     id="path3588"
     inkscape:connector-curvature="0"
     style="fill:#efe81a" />
  <path
     d="m 50.796917,42.564081 c 0.830666,-0.703523 3.297236,-0.08476 2.246189,1.271428 -0.830666,1.093428 -3.492189,0.09324 -2.246189,-1.271428 z"
     id="path3590"
     inkscape:connector-curvature="0"
     style="fill:#ffffff" />
  <path
     d="m 54.280629,42.403034 c 0.559428,-0.05933 1.669809,-0.178 2.229237,-0.237333 -0.135619,0.491618 -0.398381,1.491808 -0.534,1.983427 -0.355999,0.03391 -1.059523,0.09324 -1.415523,0.118667 -0.06781,-0.466191 -0.211904,-1.398571 -0.279714,-1.864761 z"
     id="path3592"
     inkscape:connector-curvature="0"
     style="fill:#efe81a" />
  <path
     d="m 59.162912,42.258939 c 0.788286,-0.01695 1.585047,-0.0339 2.373332,-0.05933 1.186666,1.805428 3.331142,1.864761 5.238283,2.195332 l 0.0085,0.550953 c -2.53438,-0.06781 -5.06876,-0.144096 -7.594663,-0.203429 -0.0085,-0.618761 -0.02543,-1.856285 -0.02543,-2.483522 z"
     id="path3594"
     inkscape:connector-curvature="0"
     style="fill:#d1d923" />
  <path
     d="m 19.299409,43.140462 0.652667,-0.118667 c 0.04238,1.322285 0.08476,2.636094 0.127142,3.958379 -1.474856,-0.169523 -2.958189,-0.313619 -4.441521,-0.449238 -0.127143,-0.144095 -0.398381,-0.432285 -0.534,-0.57638 -0.01695,-0.347524 -0.05086,-1.042571 -0.06781,-1.390095 1.424,-0.46619 2.839523,-0.940856 4.263522,-1.423999 z"
     id="path3596"
     inkscape:connector-curvature="0"
     style="fill:#a9cf38" />
  <path
     d="m 19.952076,43.021795 c 0.711999,1.246 1.415523,2.483523 2.161427,3.704094 2.008856,0.07628 3.576951,-0.788286 4.255045,-2.720856 1.924095,0 3.848189,0 5.772283,0 0.05933,0.491619 0.186476,1.483332 0.24581,1.983427 l -0.500095,-0.177999 c -1.500285,-0.550953 -3.034475,-0.983238 -4.585617,-1.381619 -0.356,0.635714 -1.068,1.915618 -1.423999,2.551332 -1.924095,0.254286 -3.873617,0.296667 -5.797712,0 -0.04238,-1.322285 -0.08476,-2.636094 -0.127142,-3.958379 z"
     id="path3598"
     inkscape:connector-curvature="0"
     style="fill:#5e765b" />
  <path
     d="m 45.03311,43.326938 0.474667,0.03391 -0.356,0.966285 c -0.288191,0.771333 -0.584857,1.542666 -0.898476,2.305523 -0.525524,0.05086 -1.576571,0.169523 -2.11057,0.228857 -0.237334,-0.669619 -0.712,-2.017333 -0.949333,-2.686951 1.271428,-0.296667 2.559808,-0.584857 3.839712,-0.847619 z"
     id="path3600"
     inkscape:connector-curvature="0"
     style="fill:#a7ca33" />
  <path
     d="m 33.505497,44.149128 c 0.720476,-0.0339 2.169904,-0.101714 2.898856,-0.127143 -0.211905,0.703524 -0.635714,2.102094 -0.847619,2.805618 -0.593333,0 -1.779999,0 -2.381808,0 0.08476,-0.669619 0.245809,-2.008856 0.330571,-2.678475 z"
     id="path3602"
     inkscape:connector-curvature="0"
     style="fill:#aad037" />
  <path
     d="m 45.151777,44.327128 0.39838,-1.00019 c 0.0085,2.720856 -0.46619,6.28933 -3.381998,7.425139 -3.721045,2.152951 -9.298376,-0.07629 -9.6459,-4.627998 l 0.652667,0.703524 c 1.474856,1.491809 2.797141,3.517617 5.034854,3.856665 2.686951,0.330571 5.102664,-1.635904 6.043521,-4.051617 0.313619,-0.762857 0.610285,-1.53419 0.898476,-2.305523 z"
     id="path3604"
     inkscape:connector-curvature="0"
     style="fill:#65848e" />
  <path
     d="m 47.304728,43.852462 c 0.550952,0.07628 1.661332,0.228857 2.212285,0.296666 1.669808,0.305143 3.365045,0.271238 5.04333,0.118667 0.356,-0.02543 1.059524,-0.08476 1.415523,-0.118667 -0.245809,0.313619 -0.720475,0.940857 -0.966285,1.254476 0.211905,0.322095 0.635714,0.974761 0.847619,1.296856 -0.576381,-0.01695 -1.729142,-0.05933 -2.305523,-0.07629 -1.245999,-0.05086 -2.491999,-0.05086 -3.737998,0.01695 -0.64419,0.05086 -1.93257,0.161047 -2.57676,0.211904 0.01695,-0.745904 0.05086,-2.246189 0.06781,-3.000569 z"
     id="path3606"
     inkscape:connector-curvature="0"
     style="fill:#a3cc38" />
  <path
     d="m 79.420998,44.428842 c 1.788475,-0.228857 3.559998,-0.550952 5.339997,-0.864571 -0.06781,0.983238 -0.144095,1.966475 -0.211904,2.958189 -1.17819,0.135619 -2.347904,0.288191 -3.526094,0.406857 -0.534,-0.839142 -1.067999,-1.669809 -1.601999,-2.500475 z"
     id="path3608"
     inkscape:connector-curvature="0"
     style="fill:#a9cf38" />
  <path
     d="m 27.300929,44.428842 c 1.551142,0.398381 3.085332,0.830666 4.585617,1.381619 l -0.262762,0.254285 -0.754381,0.686571 c -1.669808,0.06781 -3.331141,0.09324 -4.992473,0.228857 0.355999,-0.635714 1.067999,-1.915618 1.423999,-2.551332 z"
     id="path3610"
     inkscape:connector-curvature="0"
     style="fill:#99c73b" />
  <path
     d="m 59.188341,44.742461 c 2.525903,0.05933 5.060283,0.135619 7.594663,0.203429 l 0.0085,0.508571 c -1.805428,0.271238 -3.602379,0.550952 -5.390855,0.873047 -0.550952,0.09324 -1.64438,0.296666 -2.195332,0.389904 -0.0085,-0.491618 -0.01695,-1.483332 -0.01695,-1.974951 z"
     id="path3612"
     inkscape:connector-curvature="0"
     style="fill:#a0cb3a" />
  <path
     d="m 14.213697,45.05608 0.89,0.898476 c 0.135619,0.144095 0.406857,0.432285 0.534,0.57638 2.00038,2.288571 4.619521,4.560188 7.891329,4.263522 3.025998,0.118667 5.373902,-2.017332 7.340377,-4.043141 l 0.754381,-0.686571 C 29.547118,54.193409 15.722458,53.159314 14.213697,45.05608 Z"
     id="path3614"
     inkscape:connector-curvature="0"
     style="fill:#577e88" />
  <path
     d="m 69.893764,45.801984 c 1.517237,-0.11019 3.025999,-0.203428 4.53476,-0.347523 l 0.652667,-0.05933 c -0.07629,0.381429 -0.211905,1.144286 -0.288191,1.525714 -1.407046,-0.05086 -2.822571,-0.06781 -4.229617,-0.07629 -0.169524,-0.262762 -0.500095,-0.788285 -0.669619,-1.042571 z"
     id="path3616"
     inkscape:connector-curvature="0"
     style="fill:#a9cf38" />
  <path
     d="m 15.637697,46.530936 c 1.483332,0.135619 2.966665,0.279715 4.441521,0.449238 1.924095,0.296667 3.873617,0.254286 5.797712,0 1.661332,-0.135619 3.322665,-0.161047 4.992473,-0.228857 -1.966475,2.025809 -4.314379,4.161808 -7.340377,4.043141 -3.271808,0.296666 -5.890949,-1.974951 -7.891329,-4.263522 z"
     id="path3618"
     inkscape:connector-curvature="0"
     style="fill:#46c3f1" />
  <path
     d="m 33.174926,46.827603 c 0.601809,0 1.788475,0 2.381808,0 1.068,0.635714 2.102094,1.330761 3.254856,1.796951 1.212094,-0.381428 2.254665,-1.135809 3.331141,-1.763046 0.533999,-0.05933 1.585046,-0.178 2.11057,-0.228857 -0.940857,2.415713 -3.35657,4.382188 -6.043521,4.051617 -2.237713,-0.339048 -3.559998,-2.364856 -5.034854,-3.856665 z"
     id="path3620"
     inkscape:connector-curvature="0"
     style="fill:#48c2ea" />
  <path
     d="m 46.626633,45.496842 0.610286,1.356189 c 0.08476,1.034095 0.152571,2.06819 0.211904,3.093808 0.601809,0 1.813904,0 2.415713,0 -0.01695,-1.101904 -0.0339,-2.203808 -0.05086,-3.305712 1.245999,-0.06781 2.491999,-0.06781 3.737998,-0.01695 0.228857,1.110381 0.449238,2.212285 0.661143,3.322665 0.584856,0 1.746094,0 2.322475,-0.0085 0.09324,-1.084952 0.08476,-2.169903 -0.0085,-3.254855 l 0.406857,-0.110191 c 0.635714,1.288381 0.457714,2.82257 0.762857,4.212665 -1.491809,0 -2.983617,0 -4.46695,0 -0.02543,-1.093428 -0.04238,-2.186856 -0.06781,-3.280284 -0.652667,-0.05086 -1.949523,-0.144095 -2.60219,-0.194953 0.04238,1.161238 0.07629,2.313999 0.118667,3.475237 -1.440952,0 -2.873427,0 -4.305902,0 0.04238,-1.763047 0.09324,-3.526094 0.254285,-5.28914 z"
     id="path3622"
     inkscape:connector-curvature="0"
     style="fill:#376571" />
  <path
     d="m 47.236919,46.853031 c 0.64419,-0.05086 1.93257,-0.161047 2.57676,-0.211904 0.01695,1.101904 0.03391,2.203808 0.05086,3.305712 -0.601809,0 -1.813904,0 -2.415713,0 -0.05933,-1.025618 -0.127143,-2.059713 -0.211904,-3.093808 z"
     id="path3624"
     inkscape:connector-curvature="0"
     style="fill:#49c3e9" />
  <path
     d="m 53.551677,46.624174 c 0.576381,0.01695 1.729142,0.05933 2.305523,0.07629 l 0.669618,-0.01695 c 0.09324,1.084952 0.101715,2.169903 0.0085,3.254855 -0.576381,0.0085 -1.737619,0.0085 -2.322475,0.0085 -0.211905,-1.11038 -0.432286,-2.212284 -0.661143,-3.322665 z"
     id="path3626"
     inkscape:connector-curvature="0"
     style="fill:#48c2e8" />
  <path
     d="m 59.205293,46.717412 c 0.550952,-0.09324 1.64438,-0.296666 2.195332,-0.389904 0.288191,0.474666 0.873048,1.440952 1.169714,1.915618 1.678285,0 3.35657,0 5.034855,0 0.0339,0.432285 0.08476,1.296856 0.118666,1.729142 -2.873427,-0.0339 -5.746854,-0.118667 -8.611805,-0.01695 0.05933,-1.076476 0.08476,-2.152952 0.09324,-3.237904 z"
     id="path3628"
     inkscape:connector-curvature="0"
     style="fill:#47c3ed" />
  <path
     d="m 81.022997,46.929317 c 1.17819,-0.118666 2.347904,-0.271238 3.526094,-0.406857 l -0.08476,0.991714 c -3.034477,4.738188 -11.519139,4.636474 -13.900948,-0.669619 1.407046,0.0085 2.822571,0.02543 4.229617,0.07629 2.06819,0.169524 4.161808,0.254286 6.229997,0.0085 z"
     id="path3630"
     inkscape:connector-curvature="0"
     style="fill:#46c3f1" />
</svg>
