<?xml version="1.0" encoding="UTF-8" standalone="no"?>
<svg
   xmlns:dc="http://purl.org/dc/elements/1.1/"
   xmlns:cc="http://creativecommons.org/ns#"
   xmlns:rdf="http://www.w3.org/1999/02/22-rdf-syntax-ns#"
   xmlns:svg="http://www.w3.org/2000/svg"
   xmlns="http://www.w3.org/2000/svg"
   xmlns:sodipodi="http://sodipodi.sourceforge.net/DTD/sodipodi-0.dtd"
   xmlns:inkscape="http://www.inkscape.org/namespaces/inkscape"
   enable-background="new 0 0 512 512"
   height="512px"
   version="1.1"
   viewBox="0 0 512 512"
   width="512px"
   xml:space="preserve"
   id="svg2"
   inkscape:version="0.91 r"
   sodipodi:docname="pincel.svg"><metadata
     id="metadata19"><rdf:RDF><cc:Work
         rdf:about=""><dc:format>image/svg+xml</dc:format><dc:type
           rdf:resource="http://purl.org/dc/dcmitype/StillImage" /></cc:Work></rdf:RDF></metadata><defs
     id="defs17" /><sodipodi:namedview
     pagecolor="#ffffff"
     bordercolor="#666666"
     borderopacity="1"
     objecttolerance="10"
     gridtolerance="10"
     guidetolerance="10"
     inkscape:pageopacity="0"
     inkscape:pageshadow="2"
     inkscape:window-width="816"
     inkscape:window-height="480"
     id="namedview15"
     showgrid="false"
     inkscape:zoom="0.4609375"
     inkscape:cx="613.37634"
     inkscape:cy="282.70541"
     inkscape:window-x="326"
     inkscape:window-y="7"
     inkscape:window-maximized="0"
     inkscape:current-layer="svg2" /><g
     id="Layer_9"><g
       id="g5"><g
         id="g7"><path
           d="M485.964,14.894c-22.337,17.634-165.582,190.607-219.671,239.073c-27.1,24.242-13.756,44.413-13.756,44.413     c8.077,0.811,16.164,12.937,16.164,12.937c15.753,1.809,40.38-24.238,83.204-91.277     c57.523-90.095,142.137-200.306,142.137-200.306C499.702,8.432,485.964,14.894,485.964,14.894z"
           id="path9" /><path
           d="M215.171,313.482c-26.522,46.432-64.131,31.596-64.131,34.49c0,13.7,47.371,28.042,74.159,21.448     c32.842-8.077,41.552-35.141,41.552-48.841C266.751,306.869,233.231,281.904,215.171,313.482z"
           id="path11" /></g><path
         d="M309.612,373.45c-19.947-4.222-35.956-10.403-48.705-18.051c-7.262,9.039-18.133,17.007-34.022,20.908    c-5.01,1.246-10.743,1.868-17.062,1.868c-26.852,0-65.875-11.768-65.875-30.203c0-3.261,2.129-6.109,5.289-7.098    c0.912-0.275,1.869-0.422,3.041-0.422c0.957,0,1.983,0.092,3.311,0.192c1.805,0.151,4.048,0.315,6.681,0.315    c19.274,0,34.99-10.426,46.749-30.991c2.913-5.087,6.118-8.843,9.415-11.622c-18.738-75.675,42.77-176.737-9.314-176.737    c-106.758,0-193.304,84.701-193.304,189.175c0,104.473,86.546,189.16,193.304,189.16    C315.886,499.945,370.569,386.336,309.612,373.45z M160.047,155.506c11.974,0,21.678,9.708,21.678,21.673    c0,11.97-9.704,21.664-21.678,21.664c-11.957,0-21.65-9.694-21.65-21.664C138.397,165.213,148.091,155.506,160.047,155.506z     M104.493,202.414c16.096,0,29.137,13.056,29.137,29.146c0,16.105-13.041,29.151-29.137,29.151    c-16.105,0-29.16-13.046-29.16-29.151C75.333,215.47,88.388,202.414,104.493,202.414z M37.912,322.604    c0-20.675,16.746-37.426,37.421-37.426c20.67,0,37.425,16.751,37.425,37.426c0,20.666-16.755,37.421-37.425,37.421    C54.658,360.024,37.912,343.27,37.912,322.604z M141.909,471.17c-25.24,0-45.709-20.46-45.709-45.709    c0-25.231,20.469-45.7,45.709-45.7c25.254,0,45.714,20.469,45.714,45.7C187.623,450.71,167.163,471.17,141.909,471.17z"
         id="path13" /></g></g></svg>